<svg width="24" height="24" viewBox="0 0 24 24" fill="none" xmlns="http://www.w3.org/2000/svg">
<path fill-rule="evenodd" clip-rule="evenodd" d="M14 7C14 8.10457 13.1046 9 12 9C10.8954 9 9.99999 8.10457 9.99999 7C9.99999 5.89543 10.8954 5 12 5C13.1046 5 14 5.89543 14 7ZM13.5536 9.5669C14.4207 9.04099 15 8.08815 15 7C15 5.34315 13.6568 4 12 4C10.3431 4 8.99999 5.34315 8.99999 7C8.99999 8.09934 9.59131 9.06058 10.4732 9.58299C9.25517 9.85324 8.24933 10.7622 7.87969 11.9943L6.67969 15.9943C6.006 18.2399 7.68756 20.5 10.0321 20.5H14.2715C16.6825 20.5 18.3715 18.1194 17.575 15.8438L16.175 11.8438C15.7604 10.6591 14.7521 9.80475 13.5536 9.5669ZM8.83751 12.2816C9.15475 11.2242 10.1281 10.5 11.2321 10.5H12H12.8715C13.9339 10.5 14.8802 11.1714 15.2312 12.1741L16.6312 16.1741C17.2001 17.7996 15.9937 19.5 14.2715 19.5H10.0321C8.35742 19.5 7.15631 17.8857 7.63751 16.2816L8.83751 12.2816Z" fill="#060606"/>
</svg>
