<svg width="24" height="24" viewBox="0 0 24 24" fill="none" xmlns="http://www.w3.org/2000/svg">
<path fill-rule="evenodd" clip-rule="evenodd" d="M18.5 14H9.91465C9.70873 13.4174 9.15311 13 8.5 13C7.84689 13 7.29127 13.4174 7.08535 14H5.5C5.22386 14 5 14.2239 5 14.5C5 14.7761 5.22386 15 5.5 15H7.08535C7.29127 15.5826 7.84689 16 8.5 16C9.15311 16 9.70873 15.5826 9.91465 15H18.5C18.7761 15 19 14.7761 19 14.5C19 14.2239 18.7761 14 18.5 14ZM8.5 15C8.77614 15 9 14.7761 9 14.5C9 14.2239 8.77614 14 8.5 14C8.22386 14 8 14.2239 8 14.5C8 14.7761 8.22386 15 8.5 15Z" fill="#C4C4C4"/>
<path fill-rule="evenodd" clip-rule="evenodd" d="M18.5 9H16.9146C16.7087 8.4174 16.1531 8 15.5 8C14.8469 8 14.2913 8.4174 14.0854 9H5.5C5.22386 9 5 9.22386 5 9.5C5 9.77614 5.22386 10 5.5 10H14.0854C14.2913 10.5826 14.8469 11 15.5 11C16.1531 11 16.7087 10.5826 16.9146 10H18.5C18.7761 10 19 9.77614 19 9.5C19 9.22386 18.7761 9 18.5 9ZM15.5 10C15.7761 10 16 9.77614 16 9.5C16 9.22386 15.7761 9 15.5 9C15.2239 9 15 9.22386 15 9.5C15 9.77614 15.2239 10 15.5 10Z" fill="#C4C4C4"/>
</svg>
