<svg width="24" height="24" viewBox="0 0 24 24" fill="none" xmlns="http://www.w3.org/2000/svg">
<path fill-rule="evenodd" clip-rule="evenodd" d="M11 7.5C11 7.68278 11.016 7.88227 11.032 8.08219C11.0886 8.78838 11.1456 9.5 10.5 9.5C9.67157 9.5 8 8.32843 8 7.5C8 6.67157 8.67157 6 9.5 6C10.3284 6 11 6.67157 11 7.5ZM11 10V13H5V10H11ZM11 14H6V20H11V14ZM17 14H12V20H17V14ZM18 10H12V13H18V10ZM12.5 9.5C13.3284 9.5 15 8.32843 15 7.5C15 6.67157 14.3284 6 13.5 6C12.6716 6 12 6.67157 12 7.5C12 7.68278 11.984 7.88227 11.968 8.0822C11.9114 8.78838 11.8544 9.5 12.5 9.5Z" fill="#FDFDFF"/>
</svg>
