<svg width="24" height="24" viewBox="0 0 24 24" fill="none" xmlns="http://www.w3.org/2000/svg">
<path fill-rule="evenodd" clip-rule="evenodd" d="M12.4569 15.6125C11.559 16.472 10.3412 17 9 17C6.23858 17 4 14.7614 4 12C4 9.23858 6.23858 7 9 7C11.7614 7 14 9.23858 14 12C14 12.8563 13.7847 13.6624 13.4053 14.367C13.501 14.394 13.5935 14.4385 13.6781 14.5012L18.0387 17.7365C18.4118 18.0133 18.4899 18.5402 18.2131 18.9134C17.9362 19.2865 17.4094 19.3645 17.0362 19.0877L12.6756 15.8524C12.585 15.7852 12.5119 15.7033 12.4569 15.6125ZM13 12C13 14.2091 11.2091 16 9 16C6.79086 16 5 14.2091 5 12C5 9.79086 6.79086 8 9 8C11.2091 8 13 9.79086 13 12Z" fill="#C4C4C4"/>
</svg>
